<svg width="51" height="51" viewBox="0 0 51 51" fill="none" xmlns="http://www.w3.org/2000/svg">
<path d="M25.0195 12.1847C17.9213 12.1847 12.1959 17.9102 12.1959 25.0084C12.1959 32.1066 17.9213 37.832 25.0195 37.832C32.1177 37.832 37.8432 32.1066 37.8432 25.0084C37.8432 17.9102 32.1177 12.1847 25.0195 12.1847ZM25.0195 33.3454C20.4325 33.3454 16.6825 29.6066 16.6825 25.0084C16.6825 20.4102 20.4213 16.6713 25.0195 16.6713C29.6177 16.6713 33.3566 20.4102 33.3566 25.0084C33.3566 29.6066 29.6066 33.3454 25.0195 33.3454ZM41.3588 11.6602C41.3588 13.3231 40.0195 14.6512 38.3677 14.6512C36.7048 14.6512 35.3767 13.3119 35.3767 11.6602C35.3767 10.0084 36.7159 8.66908 38.3677 8.66908C40.0195 8.66908 41.3588 10.0084 41.3588 11.6602ZM49.8521 14.6959C49.6624 10.6892 48.7472 7.14006 45.8119 4.21596C42.8878 1.29185 39.3387 0.376674 35.332 0.175781C31.2026 -0.0585937 18.8253 -0.0585937 14.6959 0.175781C10.7003 0.365513 7.15122 1.28069 4.21596 4.2048C1.28069 7.1289 0.376674 10.678 0.175781 14.6847C-0.0585937 18.8142 -0.0585937 31.1914 0.175781 35.3209C0.365513 39.3276 1.28069 42.8767 4.21596 45.8008C7.15122 48.7249 10.6892 49.6401 14.6959 49.8409C18.8253 50.0753 31.2026 50.0753 35.332 49.8409C39.3387 49.6512 42.8878 48.736 45.8119 45.8008C48.736 42.8767 49.6512 39.3276 49.8521 35.3209C50.0865 31.1914 50.0865 18.8253 49.8521 14.6959ZM44.5173 39.7517C43.6467 41.9392 41.9615 43.6244 39.7628 44.5061C36.4704 45.8119 28.6579 45.5106 25.0195 45.5106C21.3811 45.5106 13.5575 45.8008 10.2762 44.5061C8.08872 43.6356 6.40346 41.9503 5.52176 39.7517C4.21596 36.4593 4.5173 28.6468 4.5173 25.0084C4.5173 21.37 4.22712 13.5463 5.52176 10.2651C6.3923 8.07756 8.07756 6.3923 10.2762 5.5106C13.5686 4.2048 21.3811 4.50614 25.0195 4.50614C28.6579 4.50614 36.4816 4.21596 39.7628 5.5106C41.9503 6.38114 43.6356 8.0664 44.5173 10.2651C45.8231 13.5575 45.5217 21.37 45.5217 25.0084C45.5217 28.6468 45.8231 36.4704 44.5173 39.7517Z" fill="white"/>
</svg>
